<svg width="21" height="21" viewBox="0 0 21 21" fill="none" xmlns="http://www.w3.org/2000/svg">
<g id="add">
<path id="Vector" d="M9.54545 10.0455H10.0455V9.54545V0.954545C10.0455 0.833994 10.0933 0.718378 10.1786 0.633134C10.2638 0.547889 10.3794 0.5 10.5 0.5C10.6206 0.5 10.7362 0.54789 10.8214 0.633133C10.9067 0.718377 10.9545 0.833993 10.9545 0.954545V9.54545V10.0455H11.4545H20.0455C20.166 10.0455 20.2816 10.0933 20.3669 10.1786C20.4521 10.2638 20.5 10.3794 20.5 10.5C20.5 10.6206 20.4521 10.7362 20.3669 10.8214C20.2816 10.9067 20.166 10.9545 20.0455 10.9545H11.4545H10.9545V11.4545V20.0455C10.9545 20.166 10.9067 20.2816 10.8214 20.3669C10.7362 20.4521 10.6206 20.5 10.5 20.5C10.3794 20.5 10.2638 20.4521 10.1786 20.3669C10.0933 20.2816 10.0455 20.166 10.0455 20.0455V11.4545V10.9545H9.54545H0.954545C0.833993 10.9545 0.718377 10.9067 0.633134 10.8214C0.54789 10.7362 0.5 10.6206 0.5 10.5C0.5 10.3794 0.547889 10.2638 0.633133 10.1786C0.718378 10.0933 0.833994 10.0455 0.954545 10.0455H9.54545Z" fill="black" stroke="black"/>
</g>
</svg>
