<svg width="28" height="28" viewBox="0 0 28 28" fill="none" xmlns="http://www.w3.org/2000/svg">
<rect width="28" height="28" fill="#F5F5F5"/>
<g id="employee details modal">
<g id="Humar Resource Management App" clip-path="url(#clip0_0_1)">
<rect width="1440" height="1024" transform="translate(-1186 -185)" fill="#9D9D9D"/>
<g id="table">
<rect id="table_2" x="-1141" y="-21" width="1350" height="755" fill="#F5F5F5"/>
<rect id="heading" x="-1141" y="-21" width="1350" height="70" fill="#646464"/>
</g>
<g id="ROW-HOLDER-COLUMNS">
</g>
<g id="Rectangle 6" filter="url(#filter0_b_0_1)">
<rect x="-1186" y="-185" width="1440" height="1024" fill="black" fill-opacity="0.1"/>
</g>
<g id="Frame 4" filter="url(#filter1_bd_0_1)">
<rect x="-973" y="-12" width="1013" height="711" rx="4" fill="white"/>
<g id="Group 6">
<path id="Vector" d="M14 0C6.2 0 0 6.2 0 14C0 21.8 6.2 28 14 28C21.8 28 28 21.8 28 14C28 6.2 21.8 0 14 0ZM14 26C7.4 26 2 20.6 2 14C2 7.4 7.4 2 14 2C20.6 2 26 7.4 26 14C26 20.6 20.6 26 14 26Z" fill="black"/>
<path id="Vector_2" d="M19.4 21L14 15.6L8.6 21L7 19.4L12.4 14L7 8.6L8.6 7L14 12.4L19.4 7L21 8.6L15.6 14L21 19.4L19.4 21Z" fill="black"/>
</g>
</g>
</g>
</g>
<defs>
<filter id="filter0_b_0_1" x="-1192" y="-191" width="1452" height="1036" filterUnits="userSpaceOnUse" color-interpolation-filters="sRGB">
<feFlood flood-opacity="0" result="BackgroundImageFix"/>
<feGaussianBlur in="BackgroundImageFix" stdDeviation="3"/>
<feComposite in2="SourceAlpha" operator="in" result="effect1_backgroundBlur_0_1"/>
<feBlend mode="normal" in="SourceGraphic" in2="effect1_backgroundBlur_0_1" result="shape"/>
</filter>
<filter id="filter1_bd_0_1" x="-1063" y="-102" width="1193" height="891" filterUnits="userSpaceOnUse" color-interpolation-filters="sRGB">
<feFlood flood-opacity="0" result="BackgroundImageFix"/>
<feGaussianBlur in="BackgroundImageFix" stdDeviation="45"/>
<feComposite in2="SourceAlpha" operator="in" result="effect1_backgroundBlur_0_1"/>
<feColorMatrix in="SourceAlpha" type="matrix" values="0 0 0 0 0 0 0 0 0 0 0 0 0 0 0 0 0 0 127 0" result="hardAlpha"/>
<feMorphology radius="1" operator="dilate" in="SourceAlpha" result="effect2_dropShadow_0_1"/>
<feOffset dy="4"/>
<feGaussianBlur stdDeviation="12.5"/>
<feComposite in2="hardAlpha" operator="out"/>
<feColorMatrix type="matrix" values="0 0 0 0 0 0 0 0 0 0 0 0 0 0 0 0 0 0 0.25 0"/>
<feBlend mode="normal" in2="effect1_backgroundBlur_0_1" result="effect2_dropShadow_0_1"/>
<feBlend mode="normal" in="SourceGraphic" in2="effect2_dropShadow_0_1" result="shape"/>
</filter>
<clipPath id="clip0_0_1">
<rect width="1440" height="1024" fill="white" transform="translate(-1186 -185)"/>
</clipPath>
</defs>
</svg>
