<svg width="22" height="22" viewBox="0 0 22 22" fill="none" xmlns="http://www.w3.org/2000/svg">
<path d="M0.5 17.37V20.9167C0.5 21.2434 0.756667 21.5 1.08333 21.5H4.63C4.78167 21.5 4.93333 21.4417 5.03833 21.325L17.7783 8.59671L13.4033 4.22171L0.675 16.95C0.558333 17.0667 0.5 17.2067 0.5 17.37ZM21.1617 3.56838L18.4317 0.838377C18.3237 0.730223 18.1955 0.644417 18.0544 0.585872C17.9133 0.527327 17.762 0.497192 17.6092 0.497192C17.4564 0.497192 17.3051 0.527327 17.1639 0.585872C17.0228 0.644417 16.8946 0.730223 16.7867 0.838377L14.6517 2.97338L19.0267 7.34838L21.1617 5.21338C21.2698 5.10544 21.3556 4.97724 21.4142 4.83611C21.4727 4.69497 21.5028 4.54367 21.5028 4.39088C21.5028 4.23808 21.4727 4.08678 21.4142 3.94565C21.3556 3.80451 21.2698 3.67631 21.1617 3.56838Z" fill="#FF1212"/>
</svg>
