<svg width="22" height="22" viewBox="0 0 22 22" fill="none" xmlns="http://www.w3.org/2000/svg">
<path d="M0.5 17.3699V20.9166C0.5 21.2433 0.756667 21.4999 1.08333 21.4999H4.63C4.78167 21.4999 4.93333 21.4416 5.03833 21.3249L17.7783 8.59659L13.4033 4.22159L0.675 16.9499C0.558333 17.0666 0.5 17.2066 0.5 17.3699ZM21.1617 3.56826L18.4317 0.838255C18.3237 0.730101 18.1955 0.644295 18.0544 0.58575C17.9133 0.527205 17.762 0.49707 17.6092 0.49707C17.4564 0.49707 17.3051 0.527205 17.1639 0.58575C17.0228 0.644295 16.8946 0.730101 16.7867 0.838255L14.6517 2.97325L19.0267 7.34825L21.1617 5.21326C21.2698 5.10532 21.3556 4.97712 21.4142 4.83598C21.4727 4.69485 21.5028 4.54355 21.5028 4.39075C21.5028 4.23796 21.4727 4.08666 21.4142 3.94553C21.3556 3.80439 21.2698 3.67619 21.1617 3.56826Z" fill="#4A4E69"/>
</svg>
