<svg width="23" height="21" viewBox="0 0 23 21" fill="none" xmlns="http://www.w3.org/2000/svg">
<path d="M22.2812 0H0.718747C0.528124 0 0.345308 0.076293 0.210516 0.212095C0.0757249 0.347897 0 0.532085 0 0.724138V1.93345C0.000134393 2.10448 0.0338631 2.27379 0.0992423 2.43163C0.164622 2.58947 0.260359 2.73271 0.380936 2.8531L8.05478 10.6991C8.4203 11.0728 8.62497 11.5748 8.62497 12.0975V18.1738C8.62497 18.4716 8.80862 18.7386 9.08673 18.8451V18.8451C9.55735 19.0252 10.0625 18.6778 10.0625 18.1738V10.8621C10.063 10.7668 10.0449 10.6723 10.0091 10.5841C9.97334 10.4958 9.92064 10.4156 9.85403 10.3479L1.52539 1.964C1.46909 1.90733 1.43749 1.83068 1.43749 1.7508V1.7508C1.43749 1.58372 1.57294 1.44828 1.74001 1.44828H21.2495C21.4223 1.44828 21.5624 1.58836 21.5624 1.76116V1.76116C21.5624 1.84369 21.5298 1.92288 21.4717 1.98148L13.1746 10.3479C13.1028 10.4131 13.0448 10.4923 13.004 10.5806C12.9633 10.669 12.9406 10.7647 12.9375 10.8621V19.9404C12.9375 20.2348 13.1169 20.4994 13.3904 20.6082V20.6082C13.8624 20.796 14.3749 20.4483 14.3749 19.9404V12.0467C14.3749 11.5197 14.5829 11.0141 14.9536 10.6396L22.619 2.89655C22.7415 2.77311 22.8383 2.62624 22.9037 2.46459C22.9691 2.30293 23.0018 2.12974 22.9999 1.95517V0.724138C22.9999 0.532085 22.9242 0.347897 22.7894 0.212095C22.6546 0.076293 22.4718 0 22.2812 0Z" fill="#4A4E69"/>
</svg>
