<svg width="47" height="48" viewBox="0 0 47 48" fill="none" xmlns="http://www.w3.org/2000/svg">
<path id="HRM logo" fill-rule="evenodd" clip-rule="evenodd" d="M16.8842 0.50001C16.8842 0.0645936 16.3663 -0.162762 16.0458 0.131952L0.360312 14.5546C0.157039 14.7415 0.143773 15.0578 0.330681 15.2611C0.517589 15.4644 0.833894 15.4776 1.03717 15.2907L9.17678 7.80642C11.7409 5.44871 15.8842 7.26755 15.8842 10.7509V22.5792V32.3175C15.7199 34.4134 14.6715 37.7422 12.2038 40.5912C9.81356 43.3508 6.08159 45.6731 0.483745 45.9785C0.208013 45.9935 -0.0089545 46.2239 -7.60221e-06 46.4999C0.00893929 46.7759 0.240603 46.993 0.516349 46.9782C6.40471 46.6625 10.3939 44.2082 12.9597 41.2459C15.5831 38.2171 16.7079 34.6708 16.8828 32.3747L16.8842 32.3558V32.3368V26.091C16.8842 24.4276 18.2326 23.0792 19.8959 23.0792C21.5592 23.0792 22.9076 24.4276 22.9076 26.091V46.4999C22.9076 46.7761 23.1315 46.9999 23.4076 46.9999C23.6838 46.9999 23.9076 46.7761 23.9076 46.4999V40.4733C23.9076 36.9744 29.58 35.5349 31.7863 38.2504C35.7841 43.1708 40.8472 47.1595 46.5213 47.0079C46.7973 47.0005 47.0054 46.7605 46.9862 46.4851C46.9671 46.2096 46.7282 46.003 46.4521 46.0092C41.2828 46.1253 36.5065 42.474 32.5624 37.6198C29.7137 34.1136 27.3543 30.0459 25.657 26.5105C24.8795 24.8911 26.0971 23.0792 27.8936 23.0792H30.431C30.431 23.0792 30.431 23.0792 30.431 23.0792V23.0792C30.431 23.0792 30.431 23.0792 30.431 23.0792H37.9561C38.2323 23.0792 38.4561 22.8553 38.4561 22.5792V10.3823V10.3711L38.4556 10.36C38.2451 5.65076 35.6349 2.94117 32.4959 1.49987C29.3889 0.0732711 25.7557 -0.122566 23.3558 0.127488C23.1011 0.154027 22.9076 0.368715 22.9076 0.624796V19.0675C22.9076 20.7308 21.5592 22.0792 19.8959 22.0792C18.2326 22.0792 16.8842 20.7308 16.8842 19.0675V0.50001ZM27.9076 22.0792C25.6985 22.0792 23.9076 20.2883 23.9076 18.0792V4.79587C23.9076 2.70179 25.5362 0.923168 27.6136 1.18682C29.0986 1.37529 30.6544 1.75469 32.0786 2.40865C34.9405 3.72271 37.2618 6.13277 37.4561 10.3936V18.0792C37.4561 20.2883 35.6653 22.0792 33.4561 22.0792H30.431H27.9076Z" fill="black"/>
</svg>
