<svg width="21" height="21" viewBox="0 0 21 21" fill="none" xmlns="http://www.w3.org/2000/svg">
<path fill-rule="evenodd" clip-rule="evenodd" d="M13.218 14.4968C11.5929 15.7952 9.53247 16.4221 7.4597 16.2487C5.38693 16.0753 3.45922 15.1148 2.0725 13.5644C0.685774 12.014 -0.0547022 9.99148 0.00315172 7.91216C0.0610056 5.83284 0.912798 3.85459 2.38358 2.38372C3.85437 0.91285 5.8325 0.0610091 7.9117 0.0031519C9.99091 -0.0547053 12.0133 0.685813 13.5636 2.07262C15.1139 3.45942 16.0744 5.38724 16.2478 7.46013C16.4212 9.53301 15.7943 11.5936 14.4959 13.2187L20.7122 19.4341C20.801 19.5169 20.8723 19.6168 20.9217 19.7277C20.9711 19.8386 20.9977 19.9583 20.9999 20.0798C21.002 20.2012 20.9797 20.3218 20.9342 20.4344C20.8887 20.547 20.821 20.6493 20.7352 20.7351C20.6493 20.821 20.547 20.8887 20.4344 20.9342C20.3218 20.9797 20.2012 21.002 20.0798 20.9999C19.9584 20.9977 19.8387 20.9711 19.7278 20.9217C19.6168 20.8723 19.517 20.801 19.4342 20.7122L13.218 14.4968ZM3.66207 12.6135C2.77718 11.7284 2.1745 10.6009 1.93019 9.37344C1.68588 8.14596 1.81091 6.87361 2.28947 5.71717C2.76803 4.56073 3.57865 3.57212 4.61888 2.87628C5.65911 2.18044 6.88226 1.80861 8.13375 1.80776C9.38523 1.80692 10.6089 2.17711 11.65 2.87155C12.6912 3.56599 13.5032 4.55351 13.9833 5.7093C14.4634 6.86509 14.5901 8.13728 14.3475 9.36509C14.1048 10.5929 13.5037 11.7212 12.62 12.6074L12.6139 12.6135L12.6079 12.6183C11.4205 13.803 9.81134 14.468 8.13399 14.4671C6.45664 14.4662 4.84824 13.7995 3.66207 12.6135Z" fill="#4A4E69"/>
</svg>
