<svg width="20" height="21" viewBox="0 0 20 21" fill="none" xmlns="http://www.w3.org/2000/svg">
<path d="M6.99153 0.75C6.99153 0.551088 7.07077 0.360322 7.21182 0.21967C7.35287 0.0790176 7.54417 0 7.74365 0C7.94312 0 8.13442 0.0790176 8.27547 0.21967C8.41652 0.360322 8.49576 0.551088 8.49576 0.75V19.1895C8.49573 19.3377 8.45166 19.4826 8.36911 19.6059C8.28655 19.7291 8.16923 19.8252 8.03194 19.8821C7.89465 19.9389 7.74356 19.9538 7.59774 19.9251C7.45192 19.8963 7.31792 19.8251 7.21265 19.7205L0.220963 12.75C0.150921 12.6803 0.0953501 12.5976 0.0574337 12.5065C0.0195172 12.4153 0 12.3177 0 12.219C0 12.1203 0.0195172 12.0227 0.0574337 11.9316C0.0953501 11.8404 0.150921 11.7577 0.220963 11.688H0.223971C0.364953 11.5479 0.5559 11.4692 0.754967 11.4692C0.954033 11.4692 1.14498 11.5479 1.28596 11.688L6.99153 17.382V0.75ZM11.5042 1.8105C11.5046 1.66241 11.5489 1.51772 11.6315 1.39469C11.7142 1.27166 11.8315 1.17578 11.9688 1.11915C12.106 1.06253 12.2569 1.04768 12.4026 1.07648C12.5483 1.10528 12.6822 1.17644 12.7873 1.281L19.779 8.25C19.8491 8.31967 19.9046 8.40243 19.9426 8.49355C19.9805 8.58467 20 8.68235 20 8.781C20 8.87965 19.9805 8.97733 19.9426 9.06845C19.9046 9.15957 19.8491 9.24233 19.779 9.312H19.776C19.635 9.45215 19.4441 9.53084 19.245 9.53084C19.046 9.53084 18.855 9.45215 18.714 9.312L13.0085 3.621V20.25C13.0085 20.4489 12.9292 20.6397 12.7882 20.7803C12.6471 20.921 12.4558 21 12.2564 21C12.0569 21 11.8656 20.921 11.7245 20.7803C11.5835 20.6397 11.5042 20.4489 11.5042 20.25V1.8105Z" fill="#4A4E69"/>
</svg>
